<svg preserveAspectRatio="none" overflow="visible" style="display: block;" width="24" height="24" viewBox="0 0 24 24" fill="none" xmlns="http://www.w3.org/2000/svg">
<g id="Gym [Vectorized]">
<g id="Vector">
<path d="M20.8837 19.6306C20.851 19.7521 20.5454 20.2521 20.4668 20.3485C20.0175 20.9 19.4992 21.3773 18.7683 21.4572C17.9775 21.5436 17.1566 21.5159 16.3656 21.5159L7.94431 21.5154C7.15236 21.5158 6.28826 21.5386 5.50376 21.4829C5.01019 21.4299 4.65523 21.3517 4.25752 21.0601C2.90021 20.0648 3.01704 19.0158 3.01784 17.5067L3.01777 11.9151C3.01772 11.3721 3.00073 10.8068 3.04653 10.2677C3.13067 9.27699 3.60729 8.38627 4.39034 7.77455C4.51967 7.67352 4.67806 7.58893 4.81067 7.48944C5.48586 6.90341 6.17647 6.32607 6.90511 5.8073C7.22164 5.58188 7.52886 5.34624 7.81911 5.08742C8.4305 4.54229 9.11194 4.08699 9.74811 3.5698L10.8751 2.66893C11.2188 2.39698 11.5342 2.06535 11.9727 2.01454C12.2511 1.98227 12.5453 2.20753 12.7739 2.34657C13.0542 2.50946 13.2681 2.76045 13.5163 2.95454C13.8248 3.19583 14.1192 3.44316 14.4174 3.69594C14.6027 3.85302 14.8661 3.96809 15.0585 4.13499C15.3672 4.40265 15.6863 4.65263 16.0091 4.90198C16.1616 5.01887 16.3143 5.20892 16.4704 5.31348C17.521 6.01744 18.4504 6.88524 19.4707 7.62873C20.0256 8.03307 20.4701 8.648 20.7077 9.28369C20.7538 9.40723 20.8519 9.4655 20.868 9.60964C20.8952 9.77509 20.9487 10.2644 20.9952 10.399C21.0443 11.8453 21.0082 13.4667 21.0085 14.9259C21.0087 16.2161 21.0486 17.7099 21.0004 18.9749C20.9684 19.23 20.9397 19.3818 20.8837 19.6306ZM16.1341 19.9825C16.6751 19.9827 17.2725 19.9768 17.8094 19.9826C19.5586 20.0018 19.4946 19.0582 19.4954 17.7012L19.4959 16.0959C19.4963 14.4147 19.4997 12.7291 19.4939 11.0493C19.4912 10.2705 19.3674 9.65279 18.7856 9.11637C18.0226 8.41255 17.1766 7.7873 16.3505 7.1589C16.1265 6.99214 15.9301 6.7764 15.7047 6.61285C14.5196 5.75302 13.4248 4.79047 12.246 3.92776C12.1406 3.8506 12.0375 3.83729 11.9124 3.85053C11.5953 3.99619 10.5243 4.89992 10.2064 5.15569L7.28389 7.48126C6.84645 7.82715 6.35239 8.12698 5.92899 8.50248C5.78684 8.62855 5.60227 8.73493 5.46582 8.87162C5.20261 9.14619 4.75594 9.61344 4.64234 9.98389C4.48245 10.5054 4.54533 11.3487 4.54655 11.8994L4.54674 17.3876C4.54672 17.8982 4.54573 18.409 4.55152 18.9196C4.55567 19.2868 4.92823 19.7271 5.2669 19.8481C5.4229 19.9035 5.58539 19.9384 5.75037 19.9521C6.42678 20.0128 7.41804 19.9839 8.12743 19.9833L16.1341 19.9825Z" fill="#575757"/>
<path d="M15.3007 10.0154C15.4328 9.98936 15.5397 10.0269 15.6646 10.0634C15.8691 10.2976 15.9481 10.4792 16.0816 10.7558C16.0652 10.8775 16.0315 11.0298 16.0775 11.141C16.2073 11.2342 16.4328 11.0551 16.6525 11.0412C16.8607 11.0279 16.8914 11.0409 17.1015 11.0714C17.2285 11.1766 17.4499 11.3376 17.4992 11.4979C17.571 11.7311 17.5596 15.3567 17.5248 15.7923C17.5161 15.9013 17.4903 16.0253 17.4371 16.1217C17.3481 16.2831 17.1319 16.4257 16.9557 16.4705C16.6065 16.5594 16.3197 16.3576 16.0329 16.1913C16.0778 16.7507 16.055 16.944 15.7112 17.4262C15.0848 17.6231 14.5478 17.4612 14.487 16.722C14.467 16.4789 14.4761 16.2313 14.4762 15.9873C14.4765 15.5033 14.4791 15.0194 14.4842 14.5355C13.3671 14.4959 12.2665 14.4997 11.1484 14.5053C10.8951 14.5066 9.83654 14.4958 9.62987 14.5455C9.48561 14.725 9.61836 16.3148 9.56912 16.6328C9.527 16.9048 9.38084 17.1877 9.24591 17.4216C9.01887 17.4976 8.83339 17.5071 8.59805 17.5026C7.95462 17.4016 7.98451 16.6935 7.95453 16.192C7.41415 16.5299 7.19044 16.6078 6.6308 16.2361C6.51441 16.0142 6.47077 15.649 6.46995 15.3989C6.4662 14.2597 6.45404 13.1191 6.4763 11.9802C6.47966 11.8092 6.53633 11.5497 6.59176 11.3826C6.78233 10.9851 7.30695 10.9732 7.67051 11.1041C7.77537 11.2356 7.90669 11.3453 8.0318 11.4583C8.02559 11.4301 8.02006 11.4018 8.01519 11.3733C7.95887 11.0441 7.95875 10.5682 8.16244 10.2903C8.27262 10.139 8.44067 10.0403 8.62648 10.0177C8.92766 9.97813 9.13154 10.0779 9.35898 10.2515C9.61691 10.8612 9.60104 11.5312 9.56586 12.1815C9.55533 12.3758 9.52491 12.5727 9.53598 12.7674C9.5378 12.7998 9.53726 12.9041 9.56035 12.9194C9.69336 13.0076 13.9026 12.9948 14.3054 12.9545C14.357 12.9493 14.4009 12.9344 14.4271 12.8877C14.6387 12.5098 14.2538 10.7649 14.6725 10.2434C14.8209 10.0586 15.0815 10.0421 15.3007 10.0154Z" fill="#575757"/>
<path d="M20.9952 10.399C21.0138 10.4646 21.0513 10.6409 21.0901 10.6792L21.0747 10.6903L21.0942 10.6829L21.102 10.6918C21.1608 10.6198 21.1312 10.5949 21.1602 10.5556L21.1605 18.8725C21.1519 18.8035 21.1506 18.764 21.1242 18.6987L21.0895 18.6981C21.0378 18.7816 21.0221 18.8788 21.0004 18.9749C21.0486 17.7099 21.0087 16.2161 21.0085 14.9259C21.0082 13.4667 21.0443 11.8453 20.9952 10.399Z" fill="#575757"/>
<path d="M20.868 9.60964C21.1664 9.54019 21.1618 9.88587 21.1573 10.0925C21.154 10.2451 21.1852 10.4138 21.1602 10.5556C21.1312 10.5949 21.1608 10.6198 21.102 10.6918L21.0942 10.6829L21.0747 10.6903L21.0901 10.6792C21.0513 10.6409 21.0138 10.4646 20.9952 10.399C20.9487 10.2644 20.8952 9.77509 20.868 9.60964Z" fill="#575757"/>
<path d="M21.0004 18.9749C21.0221 18.8788 21.0378 18.7816 21.0895 18.6981L21.1242 18.6987C21.1506 18.764 21.1519 18.8035 21.1605 18.8725C21.1665 18.8991 21.142 19.5662 21.1411 19.5689C21.0751 19.6425 20.9802 19.654 20.8837 19.6306C20.9397 19.3818 20.9684 19.23 21.0004 18.9749Z" fill="#575757"/>
</g>
</g>
</svg>
